<svg width="690" height="550" viewBox="0 0 690 550" fill="none" xmlns="http://www.w3.org/2000/svg">
<path d="M435.77 549.97L257.58 547.68L258.11 543.11L266.72 467.72H423.21L434.72 543.11L435.6 548.83L435.77 549.97Z" fill="#D0D2D5"/>
<path opacity="0.1" d="M435.6 548.83H346.68L257.58 547.68L258.11 543.11H434.72L435.6 548.83Z" fill="black"/>
<path d="M464.33 544.26H227.88V549.97H464.33V544.26Z" fill="#D0D2D5"/>
<path d="M689.92 14.92C689.933 10.9797 688.382 7.19518 685.607 4.39771C682.832 1.60023 679.06 0.0185266 675.12 0H14.8002C12.8474 0.00917092 10.9156 0.402888 9.11496 1.15866C7.31435 1.91443 5.68025 3.01746 4.30594 4.40477C2.93163 5.79208 1.84402 7.4365 1.10524 9.24414C0.366451 11.0518 -0.00904864 12.9872 0.000165552 14.94V415.19H689.92V14.92Z" fill="#22AA3E"/>
<path d="M0.000244141 411.19V458.07C0.000244141 461.995 1.55951 465.76 4.33505 468.535C7.11059 471.311 10.875 472.87 14.8002 472.87H675.12C679.045 472.87 682.81 471.311 685.585 468.535C688.361 465.76 689.92 461.995 689.92 458.07V411.19H0.000244141Z" fill="#D0D2D5"/>
<path d="M664.79 25.1H28.5601V384.91H664.79V25.1Z" fill="#FAFAFA"/>
<path d="M348.39 455.08C350.726 455.083 353.033 454.554 355.134 453.533C357.236 452.513 359.078 451.027 360.52 449.19C360.959 448.63 361.36 448.042 361.72 447.43L353.25 446L362.4 446.06C363.277 444.152 363.756 442.084 363.806 439.985C363.855 437.885 363.476 435.798 362.69 433.85L350.42 440.21L361.74 431.89C360.677 430.063 359.25 428.473 357.546 427.221C355.843 425.969 353.901 425.08 351.839 424.61C349.778 424.14 347.642 424.099 345.564 424.489C343.487 424.88 341.511 425.693 339.761 426.879C338.011 428.065 336.524 429.598 335.391 431.383C334.259 433.169 333.505 435.167 333.178 437.256C332.85 439.345 332.956 441.478 333.488 443.524C334.02 445.57 334.967 447.485 336.27 449.15C337.708 450.993 339.546 452.486 341.646 453.513C343.746 454.54 346.052 455.076 348.39 455.08Z" fill="#2D56A5"/>
<path opacity="0.1" d="M363.81 472.86L434.9 544.26L423.99 472.86H363.81Z" fill="black"/>
<path opacity="0.1" d="M664.98 25.14H28.0601V46.16H664.98V25.14Z" fill="#444053"/>
<path opacity="0.3" d="M440.52 28.8H249.78C249.46 28.8 249.2 29.0596 249.2 29.38V41.01C249.2 41.3303 249.46 41.59 249.78 41.59H440.52C440.841 41.59 441.1 41.3303 441.1 41.01V29.38C441.1 29.0596 440.841 28.8 440.52 28.8Z" fill="#2D56A5"/>
<path d="M435.4 36.52H434.93L434.76 36.37C435.342 35.6708 435.66 34.7897 435.66 33.88C435.654 33.1333 435.427 32.405 435.008 31.7871C434.588 31.1693 433.995 30.6895 433.304 30.4083C432.612 30.1271 431.852 30.0571 431.121 30.2071C430.389 30.3571 429.718 30.7205 429.193 31.2513C428.668 31.7821 428.312 32.4566 428.169 33.1897C428.027 33.9227 428.105 34.6815 428.394 35.3703C428.682 36.0591 429.168 36.647 429.79 37.0598C430.413 37.4727 431.143 37.6919 431.89 37.69C432.801 37.6867 433.682 37.3648 434.38 36.78L434.55 36.93V37.4L437.48 40.33L438.35 39.45L435.4 36.52ZM431.89 36.52C431.367 36.522 430.856 36.3688 430.421 36.0799C429.985 35.7911 429.645 35.3794 429.444 34.8972C429.242 34.415 429.189 33.8839 429.289 33.3711C429.39 32.8584 429.641 32.387 430.01 32.0168C430.379 31.6466 430.849 31.3942 431.361 31.2915C431.874 31.1888 432.405 31.2405 432.888 31.44C433.371 31.6395 433.784 31.9779 434.074 32.4123C434.365 32.8466 434.52 33.3574 434.52 33.88C434.523 34.2266 434.456 34.5703 434.325 34.8911C434.194 35.2119 434.001 35.5036 433.756 35.7491C433.512 35.9947 433.221 36.1892 432.9 36.3216C432.58 36.4539 432.237 36.5213 431.89 36.52Z" fill="#22AA3E"/>
<path opacity="0.8" d="M39.5101 39.5C41.6364 39.5 43.3602 37.7763 43.3602 35.65C43.3602 33.5237 41.6364 31.8 39.5101 31.8C37.3839 31.8 35.6602 33.5237 35.6602 35.65C35.6602 37.7763 37.3839 39.5 39.5101 39.5Z" fill="#FA5959"/>
<path opacity="0.8" d="M50.1003 39.5C52.2265 39.5 53.9502 37.7763 53.9502 35.65C53.9502 33.5237 52.2265 31.8 50.1003 31.8C47.974 31.8 46.2502 33.5237 46.2502 35.65C46.2502 37.7763 47.974 39.5 50.1003 39.5Z" fill="#FED253"/>
<path opacity="0.8" d="M60.7001 39.5C62.8264 39.5 64.5501 37.7763 64.5501 35.65C64.5501 33.5237 62.8264 31.8 60.7001 31.8C58.5738 31.8 56.8501 33.5237 56.8501 35.65C56.8501 37.7763 58.5738 39.5 60.7001 39.5Z" fill="#8CCF4D"/>
<path d="M218.166 232.334V221.237L257.45 159.181H266.195V175.516H260.646L232.548 219.994V220.704H286.392V232.334H218.166ZM261.268 250.09V228.961L261.357 223.9V159.181H274.363V250.09H261.268ZM333.511 251.599C326.498 251.57 320.505 249.72 315.534 246.051C310.562 242.381 306.759 237.04 304.126 230.026C301.492 223.013 300.175 214.564 300.175 204.68C300.175 194.825 301.492 186.406 304.126 179.422C306.789 172.438 310.607 167.112 315.578 163.442C320.579 159.773 326.557 157.938 333.511 157.938C340.466 157.938 346.429 159.788 351.4 163.487C356.372 167.156 360.174 172.483 362.808 179.467C365.472 186.421 366.803 194.825 366.803 204.68C366.803 214.593 365.486 223.057 362.853 230.07C360.219 237.054 356.416 242.396 351.445 246.095C346.473 249.764 340.495 251.599 333.511 251.599ZM333.511 239.747C339.667 239.747 344.475 236.744 347.938 230.736C351.43 224.729 353.176 216.043 353.176 204.68C353.176 197.134 352.377 190.756 350.779 185.548C349.21 180.31 346.946 176.345 343.987 173.652C341.058 170.929 337.566 169.568 333.511 169.568C327.386 169.568 322.577 172.586 319.085 178.623C315.593 184.66 313.832 193.346 313.803 204.68C313.803 212.256 314.587 218.662 316.155 223.9C317.753 229.109 320.017 233.059 322.947 235.752C325.876 238.416 329.398 239.747 333.511 239.747ZM380.642 232.334V221.237L419.926 159.181H428.671V175.516H423.122L395.024 219.994V220.704H448.868V232.334H380.642ZM423.744 250.09V228.961L423.832 223.9V159.181H436.838V250.09H423.744Z" fill="#101010"/>
</svg>
